<svg xmlns="http://www.w3.org/2000/svg" xmlns:xlink="http://www.w3.org/1999/xlink" viewBox="0 0 160.61 160.61"><defs><style>.cls-1,.cls-5{fill:none;}.cls-2{fill:#86c440;}.cls-3{fill:#fff;}.cls-4{clip-path:url(#clip-path);}.cls-5{stroke:#fff;stroke-miterlimit:10;}</style><clipPath id="clip-path"><rect class="cls-1" x="-1670.24" y="-1046.07" width="645" height="790"/></clipPath></defs><title>napcArtboard 29_icon</title><g id="Layer_2" data-name="Layer 2"><circle class="cls-2" cx="80.31" cy="80.31" r="80.31"/><path class="cls-3" d="M21.42,74.85s-1.24-8.4,9.39-13.64a4.47,4.47,0,0,0,2.41-3,20.87,20.87,0,0,1,5.06-9.43,14,14,0,0,1,9.91-4.68,4.75,4.75,0,0,0,3.32-1.55C54.75,39,63.87,30.9,79.65,30.9A43.21,43.21,0,0,1,109.4,42.34a5.73,5.73,0,0,0,3,1.51,19,19,0,0,1,10.13,4.93,19.86,19.86,0,0,1,5.27,9.61A3.91,3.91,0,0,0,130,61.08c2.93,1.33,8.53,5,10.29,13.77C142.76,87,21.42,74.85,21.42,74.85Z"/><path class="cls-2" d="M33.41,73.89s-1-6.76,7.56-11a3.54,3.54,0,0,0,1.94-2.42A16.94,16.94,0,0,1,47,52.9a11.33,11.33,0,0,1,8-3.77,3.82,3.82,0,0,0,2.67-1.24c2.61-2.86,10-9.39,22.67-9.39a34.89,34.89,0,0,1,24,9.21,4.59,4.59,0,0,0,2.45,1.23,15.17,15.17,0,0,1,8.15,4,15.92,15.92,0,0,1,4.25,7.74,3.19,3.19,0,0,0,1.76,2.17c2.37,1.07,6.87,4,8.29,11.08C131.13,83.65,33.41,73.89,33.41,73.89Z"/><path class="cls-3" d="M142.33,77a3.11,3.11,0,0,0-3.11-3.11H22.73A3.1,3.1,0,0,0,19.63,77v2.14a3.11,3.11,0,0,0,.24,1.21l.08.19a2.94,2.94,0,0,1,.24,1.21c0,2.81.44,15,8.74,28.44,7.13,11.51,16.81,15.43,21.15,16.67a3.11,3.11,0,0,1,2.28,3v4a3.1,3.1,0,0,0,3.1,3.11h51a3.11,3.11,0,0,0,3.11-3.11v-4a3.1,3.1,0,0,1,2.28-3c4.34-1.24,14-5.16,21.14-16.67,8.31-13.42,8.76-25.63,8.74-28.44a3,3,0,0,1,.25-1.21l.08-.19a3.11,3.11,0,0,0,.24-1.21Z"/><g class="cls-4"><path class="cls-5" d="M34.27,50.83,12.16,54.77-2.7,54l1.48-9.19,7-19L16,20.42l11.86,1.45,7.46,7.59L31,34.37l3.36,8Z"/><path class="cls-5" d="M34.27,50.83,31.58,57.1l.76,8.75-8.94,20,5,14.78-5.21,2.73-11.3-.1L-13.23,65.4l-2-6L-2.7,54l14.86.82Z"/><path class="cls-5" d="M26.71-38.78l1.07,1.58.58.86,4,4.08-3.86,6.41,4.14,4.72L28.11-3.94,21.66-2.08,19.47,13.13,31,14l-3.09,7.89L16,20.42,5.8,25.75l-7,19L-5.33,33.32-1.68.21l5.33-17.4L17.25-33l.94-3.28.81-.15,2.55-1.31,1.27-.54,1.07-.18.42.07,2-1.52Z"/><path class="cls-5" d="M-41.24,111.67-53.87,86.36l8.92-5.9,3.32-5.72,28.4-9.34,25.08,37.85L-17.4,118.39l-9,.55Z"/><path class="cls-5" d="M-17.4,118.39l3.75,12.8,17.06,8L11.54,141l1.55,7.38-8.95,2.49,4.73,7.2-.38,6.08-8.81,9.45-12-1.74L-15.6,175l-24.33-5.22L-47.56,163l1.3-18.74,5-10.86,1.29-16.36-1.29-5.39,14.84,7.27Z"/><path class="cls-5" d="M93.79,167.37l4.2,7.4,6,6.67,42.42,22.85.36.18L91.82,201l-.9-18.64-9.61-14.68,8.1-13.79Z"/><path class="cls-5" d="M125.83,102.71l13.9,9.38,1.62,7.93L137,125.58l-9.13-5.47Z"/><path class="cls-5" d="M147.05,168.36l-.66,35.93L104,181.44l-6-6.67-4.2-7.4-4.38-13.52,7,.54,2.16,7,7.89,1.91,4.1,5.09,13.72,4.1,8.79-3.11Zm-20.18-18.85,10.65,4.88-2,5.09-9,1.86ZM125,132.22l9.68,5.63,8.73,12.57-4.32,3.47-9.81-12.17Z"/><path class="cls-5" d="M164.76,178.26l-.16,8.68,4.56,3.85,10.41-.27-6.8,27.31-26-13.36-.36-.18.66-35.93,6.86,6Zm-8.91-24.34,3.48,8.5,9.48,4-4.58,7.22L159,172.28l-9.51-7.71Z"/><path class="cls-5" d="M11.54,141l-8.13-1.87-17.06-8-3.75-12.8,29.25-15.14,11.3.1L24.52,117,7,129.08l0,6.5Z"/><path class="cls-5" d="M24.67-67.69l1.7,7.56L24-44.73,22-41.42l-1,1.58-2.84,3.56L17.25-33,3.65-17.19-1.68.21-11.45-6.6l-5.67,1.32-3.66-12.39-9-3.28-19.36,7.2-13.67-1.49-6.82-8.82L-87.31-23l-3.92-4.51,1.83-24.65,11.43,0,4.07-6.23,4.5-17.95,7.23-10.34,9.35,7.38,17.6,7.39,17,19.57,12.42,4,2.86,10,9.86-.54,4.6-10.44,1-11Z"/></g><path class="cls-2" d="M81.23,92.73a.39.39,0,0,1-.56,0c-.88-1-3.61-4.19-3.61-6.66s2.08-6.68,2.83-8.15a.39.39,0,0,1,.65-.07c1,1.22,3.7,4.78,3.7,8.18A9.9,9.9,0,0,1,81.23,92.73Z"/><path class="cls-2" d="M82.94,102.21a.14.14,0,0,1-.2-.12A37.27,37.27,0,0,1,83,94.41c.55-2.39,5.23-5.29,6.59-6a.13.13,0,0,1,.2.09,19.32,19.32,0,0,1,.15,6C89.47,98,87.85,100.35,82.94,102.21Z"/><path class="cls-2" d="M82.94,113.69a.15.15,0,0,1-.2-.12,37.37,37.37,0,0,1,.24-7.69c.55-2.38,5.23-5.28,6.59-6a.14.14,0,0,1,.2.1,19.32,19.32,0,0,1,.15,6C89.47,109.46,87.85,111.83,82.94,113.69Z"/><path class="cls-2" d="M82.94,125.17a.15.15,0,0,1-.2-.13,37.28,37.28,0,0,1,.24-7.68c.55-2.38,5.23-5.29,6.59-6a.14.14,0,0,1,.2.1,19.25,19.25,0,0,1,.15,6C89.47,120.94,87.85,123.31,82.94,125.17Z"/><path class="cls-2" d="M79.2,102.21a.14.14,0,0,0,.2-.12,38.11,38.11,0,0,0-.25-7.68c-.55-2.39-5.23-5.29-6.59-6a.13.13,0,0,0-.19.09,19,19,0,0,0-.15,6C72.66,98,74.28,100.35,79.2,102.21Z"/><path class="cls-2" d="M79.2,113.69a.15.15,0,0,0,.2-.12,38.22,38.22,0,0,0-.25-7.69c-.55-2.38-5.23-5.28-6.59-6a.13.13,0,0,0-.19.1,19,19,0,0,0-.15,6C72.66,109.46,74.28,111.83,79.2,113.69Z"/><path class="cls-2" d="M79.2,125.17a.15.15,0,0,0,.2-.13,38.13,38.13,0,0,0-.25-7.68c-.55-2.38-5.23-5.29-6.59-6a.13.13,0,0,0-.19.1,18.92,18.92,0,0,0-.15,6C72.66,120.94,74.28,123.31,79.2,125.17Z"/><rect class="cls-2" x="80.59" y="94.03" width="0.85" height="58.41" rx="0.26" ry="0.26"/><path class="cls-2" d="M97.9,110.06a.11.11,0,0,0,.15-.09,28.71,28.71,0,0,0-.19-5.9c-.41-1.82-4-4-5-4.58a.1.1,0,0,0-.15.08,14.53,14.53,0,0,0-.11,4.58C92.89,106.82,94.13,108.64,97.9,110.06Z"/><path class="cls-2" d="M99.46,102.79a.29.29,0,0,1-.43,0c-.68-.75-2.77-3.21-2.77-5.11s1.6-5.12,2.17-6.24a.3.3,0,0,1,.5-.06c.77.94,2.83,3.66,2.83,6.27A7.57,7.57,0,0,1,99.46,102.79Z"/><path class="cls-2" d="M100.77,110.06a.11.11,0,0,1-.15-.09,28.71,28.71,0,0,1,.19-5.9c.41-1.82,4-4,5-4.58a.1.1,0,0,1,.15.08,14.86,14.86,0,0,1,.11,4.58C105.78,106.82,104.54,108.64,100.77,110.06Z"/><path class="cls-2" d="M100.77,118.87a.12.12,0,0,1-.15-.1,28.61,28.61,0,0,1,.19-5.89c.41-1.83,4-4.06,5-4.59a.11.11,0,0,1,.15.08,14.86,14.86,0,0,1,.11,4.58C105.78,115.62,104.54,117.44,100.77,118.87Z"/><path class="cls-2" d="M100.77,127.67a.11.11,0,0,1-.15-.1,28.63,28.63,0,0,1,.19-5.89c.41-1.83,4-4.06,5-4.59a.11.11,0,0,1,.15.08,14.86,14.86,0,0,1,.11,4.58C105.78,124.42,104.54,126.24,100.77,127.67Z"/><path class="cls-2" d="M97.9,118.87a.12.12,0,0,0,.15-.1,28.61,28.61,0,0,0-.19-5.89c-.41-1.83-4-4.06-5-4.59a.11.11,0,0,0-.15.08,14.53,14.53,0,0,0-.11,4.58C92.89,115.62,94.13,117.44,97.9,118.87Z"/><path class="cls-2" d="M97.9,127.67a.11.11,0,0,0,.15-.1,28.63,28.63,0,0,0-.19-5.89c-.41-1.83-4-4.06-5-4.59a.11.11,0,0,0-.15.08,14.53,14.53,0,0,0-.11,4.58C92.89,124.42,94.13,126.24,97.9,127.67Z"/><rect class="cls-2" x="98.97" y="103.79" width="0.65" height="48.62" rx="0.32" ry="0.32"/><path class="cls-2" d="M62.65,102.79a.29.29,0,0,1-.43,0c-.68-.75-2.77-3.21-2.77-5.11s1.6-5.12,2.18-6.24a.29.29,0,0,1,.49-.06C62.9,92.31,65,95,65,97.64A7.57,7.57,0,0,1,62.65,102.79Z"/><path class="cls-2" d="M64,110.06a.11.11,0,0,1-.15-.09,28.71,28.71,0,0,1,.19-5.9c.41-1.82,4-4,5-4.58a.1.1,0,0,1,.15.08,14.53,14.53,0,0,1,.11,4.58C69,106.82,67.73,108.64,64,110.06Z"/><path class="cls-2" d="M64,118.87a.12.12,0,0,1-.15-.1,28.61,28.61,0,0,1,.19-5.89c.41-1.83,4-4.06,5-4.59a.11.11,0,0,1,.15.08,14.53,14.53,0,0,1,.11,4.58C69,115.62,67.73,117.44,64,118.87Z"/><path class="cls-2" d="M64,127.67a.11.11,0,0,1-.15-.1,28.63,28.63,0,0,1,.19-5.89c.41-1.83,4-4.06,5-4.59a.11.11,0,0,1,.15.08,14.53,14.53,0,0,1,.11,4.58C69,124.42,67.73,126.24,64,127.67Z"/><path class="cls-2" d="M61.09,110.06a.11.11,0,0,0,.15-.09,28.71,28.71,0,0,0-.19-5.9c-.41-1.82-4-4-5-4.58a.1.1,0,0,0-.15.08,14.86,14.86,0,0,0-.11,4.58C56.08,106.82,57.32,108.64,61.09,110.06Z"/><path class="cls-2" d="M61.09,118.87a.12.12,0,0,0,.15-.1,28.61,28.61,0,0,0-.19-5.89c-.41-1.83-4-4.06-5-4.59a.11.11,0,0,0-.15.08,14.86,14.86,0,0,0-.11,4.58C56.08,115.62,57.32,117.44,61.09,118.87Z"/><path class="cls-2" d="M61.09,127.67a.11.11,0,0,0,.15-.1,28.63,28.63,0,0,0-.19-5.89c-.41-1.83-4-4.06-5-4.59a.11.11,0,0,0-.15.08,14.86,14.86,0,0,0-.11,4.58C56.08,124.42,57.32,126.24,61.09,127.67Z"/><rect class="cls-2" x="62.16" y="103.79" width="0.65" height="48.62" rx="0.32" ry="0.32"/><path class="cls-3" d="M47.84,68.77a1.79,1.79,0,0,1-1.46-2.15c.27-1.24,1.23-3,4.31-4.28,3.49-1.46,5.65-1.19,6.72-.83a1.57,1.57,0,0,1,1.08,1.64c-.09,1-.94,2.59-4.4,4.2C51,68.8,49,69,47.84,68.77Z"/><path class="cls-3" d="M63.67,53.65a1.79,1.79,0,0,1-.15-2.6c.86-.93,2.58-1.94,5.88-1.48,3.75.53,5.47,1.87,6.21,2.72a1.58,1.58,0,0,1,.09,2c-.61.84-2.14,1.75-5.93,1.37C66.35,55.27,64.58,54.4,63.67,53.65Z"/><path class="cls-3" d="M75.56,67.75A1.79,1.79,0,0,1,75,65.21c.69-1.06,2.21-2.34,5.55-2.44,3.78-.12,5.7.91,6.57,1.63a1.56,1.56,0,0,1,.42,1.91c-.46.93-1.81,2.09-5.61,2.35C78.48,68.89,76.59,68.34,75.56,67.75Z"/><path class="cls-3" d="M84.7,47.75a1.79,1.79,0,0,1,.66-2.52c1.11-.61,3-1,6,.42,3.41,1.66,4.63,3.46,5.06,4.5A1.57,1.57,0,0,1,96,52c-.84.61-2.58,1-6.06-.53C86.75,50.12,85.33,48.75,84.7,47.75Z"/><path class="cls-3" d="M102.41,66.79a1.78,1.78,0,0,1-.49-2.55c.72-1,2.29-2.27,5.63-2.26,3.79,0,5.67,1.11,6.51,1.86a1.58,1.58,0,0,1,.36,1.93c-.5.91-1.88,2-5.69,2.15C105.29,68,103.42,67.41,102.41,66.79Z"/></g></svg>